    <svg width="1036" height="929" xmlns="http://www.w3.org/2000/svg">
        <g transform="translate(0, 10)"><g class="links" fill="none" stroke-opacity="0.7">
            <path d="M5,271.01576425463537C258.75,271.01576425463537,258.75,204.78813066377154,512.5,204.78813066377154" stroke-width="1.4008373815413244" style="stroke: rgb(105, 191, 191);"></path><path d="M5,277.58428815370036C258.75,277.58428815370036,258.75,304.499346335592,512.5,304.499346335592" stroke-width="0.03357876944075701" style="stroke: rgb(105, 191, 191);"></path><path d="M5,277.9256723096814C258.75,277.9256723096814,258.75,704.2072288948468,512.5,704.2072288948468" stroke-width="0.6491895425213022" style="stroke: rgb(105, 191, 191);"></path><path d="M5,274.641840857193C258.75,274.641840857193,258.75,240.17755483438106,512.5,240.17755483438106" stroke-width="5.851315823573964" style="stroke: rgb(105, 191, 191);"></path><path d="M5,300.2684372237405C258.75,300.2684372237405,258.75,205.55656788751193,512.5,205.55656788751193" stroke-width="0.13603706593947712" style="stroke: rgb(105, 188, 191);"></path><path d="M5,300.54051135561946C258.75,300.54051135561946,258.75,243.30726834507726,512.5,243.30726834507726" stroke-width="0.4081111978184313" style="stroke: rgb(105, 188, 191);"></path><path d="M5,301.39547848522636C258.75,301.39547848522636,258.75,281.1423145479207,512.5,281.1423145479207" stroke-width="1.3018230613955024" style="stroke: rgb(105, 188, 191);"></path><path d="M5,302.69644055253366C258.75,302.69644055253366,258.75,438.8349454175826,512.5,438.8349454175826" stroke-width="1.3001010732190534" style="stroke: rgb(105, 188, 191);"></path><path d="M5,150.0397007541615C258.75,150.0397007541615,258.75,165.48676401563014,512.5,165.48676401563014" stroke-width="1.5205155598045355" style="stroke: rgb(105, 185, 191);"></path><path d="M5,152.75054064093644C258.75,152.75054064093644,258.75,220.99503704578248,512.5,220.99503704578248" stroke-width="3.901164213745385" style="stroke: rgb(105, 185, 191);"></path><path d="M5,370.74590595871285C258.75,370.74590595871285,258.75,205.70896384112768,512.5,205.70896384112768" stroke-width="0.16875484129200957" style="stroke: rgb(105, 183, 191);"></path><path d="M5,374.408144312976C258.75,374.408144312976,258.75,440.4600717591064,512.5,440.4600717591064" stroke-width="1.95015160982858" style="stroke: rgb(105, 183, 191);"></path><path d="M5,372.13167594371026C258.75,372.13167594371026,258.75,355.1201547485697,512.5,355.1201547485697" stroke-width="2.602785128702781" style="stroke: rgb(105, 183, 191);"></path><path d="M5,610.2634613114185C258.75,610.2634613114185,258.75,693.7638169394112,512.5,693.7638169394112" stroke-width="0.23763436834997267" style="stroke: rgb(105, 180, 191);"></path><path d="M5,519.1862943563139C258.75,519.1862943563139,258.75,281.929263144558,512.5,281.929263144558" stroke-width="0.27207413187895424" style="stroke: rgb(105, 177, 191);"></path><path d="M5,520.2427341025654C258.75,520.2427341025654,258.75,415.7560305580915,512.5,415.7560305580915" stroke-width="0.955703437929238" style="stroke: rgb(105, 177, 191);"></path><path d="M5,524.7784509593322C258.75,524.7784509593322,258.75,571.5342252349018,512.5,571.5342252349018" stroke-width="1.4344161509820814" style="stroke: rgb(105, 177, 191);"></path><path d="M5,523.1571990912055C258.75,523.1571990912055,258.75,495.19986005246625,512.5,495.19986005246625" stroke-width="0.3753934224658989" style="stroke: rgb(105, 177, 191);"></path><path d="M5,519.5436069029271C258.75,519.5436069029271,258.75,342.2973856303255,512.5,342.2973856303255" stroke-width="0.4425509613474129" style="stroke: rgb(105, 177, 191);"></path><path d="M5,518.8117619279362C258.75,518.8117619279362,258.75,268.3018950508678,512.5,268.3018950508678" stroke-width="0.47699072487639443" style="stroke: rgb(105, 177, 191);"></path><path d="M5,521.2828149611406C258.75,521.2828149611406,258.75,441.99737670363135,512.5,441.99737670363135" stroke-width="1.1244582792212476" style="stroke: rgb(105, 177, 191);"></path><path d="M5,522.4072732403619C258.75,522.4072732403619,258.75,456.3720876659002,512.5,456.3720876659002" stroke-width="1.1244582792212479" style="stroke: rgb(105, 177, 191);"></path><path d="M5,523.7030693431398C258.75,523.7030693431398,258.75,539.3985135613772,512.5,539.3985135613772" stroke-width="0.7163470814028162" style="stroke: rgb(105, 177, 191);"></path><path d="M5,527.5413809884448C258.75,527.5413809884448,258.75,630.8011046064627,512.5,630.8011046064627" stroke-width="0.7507868449317978" style="stroke: rgb(105, 177, 191);"></path><path d="M5,526.7742352558366C258.75,526.7742352558366,258.75,618.083807264026,512.5,618.083807264026" stroke-width="0.7835046202843302" style="stroke: rgb(105, 177, 191);"></path><path d="M5,528.7519386764884C258.75,528.7519386764884,258.75,658.5138896487781,512.5,658.5138896487781" stroke-width="1.6703285311556049" style="stroke: rgb(105, 177, 191);"></path><path d="M5,525.9390709902589C258.75,525.9390709902589,258.75,583.9966683272239,512.5,583.9966683272239" stroke-width="0.886823910871275" style="stroke: rgb(105, 177, 191);"></path><path d="M5,473.1520014513083C258.75,473.1520014513083,258.75,481.29869583872085,512.5,481.29869583872085" stroke-width="0.9212636744002564" style="stroke: rgb(105, 174, 191);"></path><path d="M5,846.2353479827117C258.75,846.2353479827117,258.75,796.2353479827113,512.5,796.2353479827113" stroke-width="0.955703437929238" style="stroke: rgb(105, 172, 191);"></path><path d="M5,857.2082713024055C258.75,857.2082713024055,258.75,797.2082713024051,512.5,797.2082713024051" stroke-width="0.9901432014582195" style="stroke: rgb(105, 169, 191);"></path><path d="M5,620.8937089839989C258.75,620.8937089839989,258.75,731.5428985265198,512.5,731.5428985265198" stroke-width="1.0228609768107522" style="stroke: rgb(105, 166, 191);"></path><path d="M5,688.3912455042581C258.75,688.3912455042581,258.75,749.0404350467791,512.5,749.0404350467791" stroke-width="1.0573007403397334" style="stroke: rgb(105, 163, 191);"></path><path d="M5,733.3643473578431C258.75,733.3643473578431,258.75,754.013536900364,512.5,754.013536900364" stroke-width="1.0917405038687151" style="stroke: rgb(105, 161, 191);"></path><path d="M5,767.0717879017379C258.75,767.0717879017379,258.75,757.7209774442588,512.5,757.7209774442588" stroke-width="1.1261802673976966" style="stroke: rgb(105, 158, 191);"></path><path d="M5,778.2151880509C258.75,778.2151880509,258.75,758.8643775934208,512.5,758.8643775934208" stroke-width="1.1606200309266783" style="stroke: rgb(105, 155, 191);"></path><path d="M5,811.3388746029786C258.75,811.3388746029786,258.75,760.042217506112,512.5,760.042217506112" stroke-width="1.1950597944556598" style="stroke: rgb(105, 152, 191);"></path><path d="M5,812.5847330486396C258.75,812.5847330486396,258.75,795.1091677153136,512.5,795.1091677153136" stroke-width="1.2966570968661553" style="stroke: rgb(105, 152, 191);"></path><path d="M5,835.143607478843C258.75,835.143607478843,258.75,783.8469503819765,512.5,783.8469503819765" stroke-width="1.227777569808192" style="stroke: rgb(105, 150, 191);"></path><path d="M5,677.2306254733314C258.75,677.2306254733314,258.75,747.8798150158524,512.5,747.8798150158524" stroke-width="1.2639393215136228" style="stroke: rgb(105, 147, 191);"></path><path d="M5,710.8691864901684C258.75,710.8691864901684,258.75,751.5183760326893,512.5,751.5183760326893" stroke-width="1.2983790850426045" style="stroke: rgb(105, 144, 191);"></path><path d="M5,744.5594071522987C258.75,744.5594071522987,258.75,755.2085966948196,512.5,755.2085966948196" stroke-width="1.2983790850426045" style="stroke: rgb(105, 142, 191);"></path><path d="M5,665.9494662700533C258.75,665.9494662700533,258.75,746.5986558125743,512.5,746.5986558125743" stroke-width="1.2983790850426045" style="stroke: rgb(105, 139, 191);"></path><path d="M5,823.8813901455057C258.75,823.8813901455057,258.75,782.5847330486392,512.5,782.5847330486392" stroke-width="1.2966570968661553" style="stroke: rgb(105, 136, 191);"></path><path d="M5,800.0930161573177C258.75,800.0930161573177,258.75,771.2880759517731,512.5,771.2880759517731" stroke-width="1.2966570968661553" style="stroke: rgb(105, 133, 191);"></path><path d="M5,654.6510871850107C258.75,654.6510871850107,258.75,745.3002767275317,512.5,745.3002767275317" stroke-width="1.2983790850426045" style="stroke: rgb(105, 131, 191);"></path><path d="M5,643.3527080999681C258.75,643.3527080999681,258.75,734.0018976424891,512.5,734.0018976424891" stroke-width="1.2983790850426045" style="stroke: rgb(105, 128, 191);"></path><path d="M5,868.3516714515675C258.75,868.3516714515675,258.75,798.3516714515672,512.5,798.3516714515672" stroke-width="1.2966570968661553" style="stroke: rgb(105, 125, 191);"></path><path d="M5,789.120092837624C258.75,789.120092837624,258.75,704.8564184373681,512.5,704.8564184373681" stroke-width="0.6491895425213022" style="stroke: rgb(105, 122, 191);"></path><path d="M5,576.4953048466199C258.75,576.4953048466199,258.75,673.8985466765345,512.5,673.8985466765345" stroke-width="2.600202146438107" style="stroke: rgb(105, 120, 191);"></path><path d="M5,574.5447227397472C258.75,574.5447227397472,258.75,457.5847978391645,512.5,457.5847978391645" stroke-width="1.300962067307278" style="stroke: rgb(105, 120, 191);"></path><path d="M5,563.2450521635722C258.75,563.2450521635722,258.75,671.9492560607941,512.5,671.9492560607941" stroke-width="1.2983790850426045" style="stroke: rgb(105, 117, 191);"></path><path d="M5,559.018432184478C258.75,559.018432184478,258.75,482.08478344126985,512.5,482.08478344126985" stroke-width="0.6509115306977512" style="stroke: rgb(105, 117, 191);"></path><path d="M5,560.9698752854389C258.75,560.9698752854389,258.75,644.7526369743692,512.5,644.7526369743692" stroke-width="3.2519746712240822" style="stroke: rgb(105, 117, 191);"></path><path d="M5,597.2194167125006C258.75,597.2194167125006,258.75,718.1062406233716,512.5,718.1062406233716" stroke-width="5.85045482948574" style="stroke: rgb(105, 114, 191);"></path><path d="M5,591.6948481454078C258.75,591.6948481454078,258.75,691.0456586028863,512.5,691.0456586028863" stroke-width="5.198682304699765" style="stroke: rgb(105, 114, 191);"></path><path d="M5,588.4454564564485C258.75,588.4454564564485,258.75,647.0286748465908,512.5,647.0286748465908" stroke-width="1.3001010732190534" style="stroke: rgb(105, 114, 191);"></path><path d="M5,505.0010020934544C258.75,505.0010020934544,258.75,642.8020548674965,512.5,642.8020548674965" stroke-width="0.6491895425213022" style="stroke: rgb(105, 111, 191);"></path><path d="M5,506.9494317151065C258.75,506.9494317151065,258.75,686.822482600145,512.5,686.822482600145" stroke-width="3.24766970078296" style="stroke: rgb(105, 111, 191);"></path><path d="M5,501.4244326509697C258.75,501.4244326509697,258.75,554.3087628465216,512.5,554.3087628465216" stroke-width="6.5039493424481645" style="stroke: rgb(105, 111, 191);"></path><path d="M5,456.191294745057C258.75,456.191294745057,258.75,511.88763163275024,512.5,511.88763163275024" stroke-width="10.399947591664203" style="stroke: rgb(105, 109, 191);"></path><path d="M5,462.04131907749866C258.75,462.04131907749866,258.75,550.4067376386881,512.5,550.4067376386881" stroke-width="1.3001010732190534" style="stroke: rgb(105, 109, 191);"></path><path d="M5,449.36533361361285C258.75,449.36533361361285,258.75,388.4483432342856,512.5,388.4483432342856" stroke-width="3.2519746712240822" style="stroke: rgb(105, 109, 191);"></path><path d="M5,357.0862505867143C258.75,357.0862505867143,258.75,384.54717902054017,512.5,384.54717902054017" stroke-width="4.550353756266687" style="stroke: rgb(105, 106, 191);"></path><path d="M5,360.0114780014572C258.75,360.0114780014572,258.75,506.03760730030865,512.5,506.03760730030865" stroke-width="1.3001010732190534" style="stroke: rgb(105, 106, 191);"></path><path d="M5,347.98209909782804C258.75,347.98209909782804,258.75,311.3451103310653,512.5,311.3451103310653" stroke-width="13.657949221505863" style="stroke: rgb(105, 106, 191);"></path><path d="M5,699.5699464110376C258.75,699.5699464110376,258.75,750.2191359535585,512.5,750.2191359535585" stroke-width="1.3001010732190534" style="stroke: rgb(107, 105, 191);"></path><path d="M5,722.1684265692993C258.75,722.1684265692993,258.75,752.8176161118201,512.5,752.8176161118201" stroke-width="1.3001010732190534" style="stroke: rgb(110, 105, 191);"></path><path d="M5,755.8586472314296C258.75,755.8586472314296,258.75,756.5078367739504,512.5,756.5078367739504" stroke-width="1.3001010732190534" style="stroke: rgb(112, 105, 191);"></path><path d="M5,632.0543290149255C258.75,632.0543290149255,258.75,732.7035185574465,512.5,732.7035185574465" stroke-width="1.2983790850426045" style="stroke: rgb(115, 105, 191);"></path><path d="M5,232.18626987989254C258.75,232.18626987989254,258.75,479.86212720251825,512.5,479.86212720251825" stroke-width="0.6500505366095267" style="stroke: rgb(118, 105, 191);"></path><path d="M5,229.91238449289153C258.75,229.91238449289153,258.75,380.3231420237106,512.5,380.3231420237106" stroke-width="3.897720237392487" style="stroke: rgb(118, 105, 191);"></path><path d="M5,222.40580753470587C258.75,222.40580753470587,258.75,298.92484011138225,512.5,298.92484011138225" stroke-width="11.115433678978794" style="stroke: rgb(118, 105, 191);"></path><path d="M5,183.6214678365433C258.75,183.6214678365433,258.75,185.16736688426664,512.5,185.16736688426664" stroke-width="37.84069017746849" style="stroke: rgb(118, 105, 191);"></path><path d="M5,209.69495181024703C258.75,209.69495181024703,258.75,230.09875803762463,512.5,230.09875803762463" stroke-width="14.306277769938935" style="stroke: rgb(118, 105, 191);"></path><path d="M5,316.92219953753977C258.75,316.92219953753977,258.75,480.51260823617184,512.5,480.51260823617184" stroke-width="0.6509115306977512" style="stroke: rgb(121, 105, 191);"></path><path d="M5,313.9965416257528C258.75,313.9965416257528,258.75,353.1687116476088,512.5,353.1687116476088" stroke-width="1.3001010732190534" style="stroke: rgb(121, 105, 191);"></path><path d="M5,315.6216679672766C258.75,315.6216679672766,258.75,453.53468164815627,512.5,453.53468164815627" stroke-width="1.95015160982858" style="stroke: rgb(121, 105, 191);"></path><path d="M5,259.9898897985157C258.75,259.9898897985157,258.75,328.49954070716717,512.5,328.49954070716717" stroke-width="0.6509115306977512" style="stroke: rgb(123, 105, 191);"></path><path d="M5,257.3883961609453C258.75,257.3883961609453,258.75,255.13645028551042,512.5,255.13645028551042" stroke-width="0.6500505366095267" style="stroke: rgb(123, 105, 191);"></path><path d="M5,258.6889277312084C258.75,258.6889277312084,258.75,279.51589671526455,512.5,279.51589671526455" stroke-width="1.9510126039168048" style="stroke: rgb(123, 105, 191);"></path><path d="M5,385.70867588323904C258.75,385.70867588323904,258.75,329.1504522378649,512.5,329.1504522378649" stroke-width="0.6509115306977512" style="stroke: rgb(126, 105, 191);"></path><path d="M5,386.6841821851974C258.75,386.6841821851974,258.75,414.6281283025173,512.5,414.6281283025173" stroke-width="1.3001010732190534" style="stroke: rgb(126, 105, 191);"></path><path d="M5,400.90994117020347C258.75,400.90994117020347,258.75,582.5768890757417,512.5,582.5768890757417" stroke-width="0.6509115306977512" style="stroke: rgb(129, 105, 191);"></path><path d="M5,400.2594601365499C258.75,400.2594601365499,258.75,567.8857627860503,512.5,567.8857627860503" stroke-width="0.6500505366095267" style="stroke: rgb(129, 105, 191);"></path><path d="M5,399.2843843316356C258.75,399.2843843316356,258.75,426.88393281366564,512.5,426.88393281366564" stroke-width="1.3001010732190534" style="stroke: rgb(129, 105, 191);"></path><path d="M5,397.98428325841655C258.75,397.98428325841655,258.75,341.4260596130423,512.5,341.4260596130423" stroke-width="1.3001010732190534" style="stroke: rgb(129, 105, 191);"></path><path d="M5,487.84700221439675C258.75,487.84700221439675,258.75,583.2278006064395,512.5,583.2278006064395" stroke-width="0.6509115306977512" style="stroke: rgb(131, 105, 191);"></path><path d="M5,484.2635448192062C258.75,484.2635448192062,258.75,494.3612518105355,512.5,494.3612518105355" stroke-width="1.3018230613955024" style="stroke: rgb(131, 105, 191);"></path><path d="M5,485.24034261229696C258.75,485.24034261229696,258.75,527.4134916909754,512.5,527.4134916909754" stroke-width="0.6517725247859758" style="stroke: rgb(131, 105, 191);"></path><path d="M5,486.5438876618689C258.75,486.5438876618689,258.75,569.8393583722318,512.5,569.8393583722318" stroke-width="1.9553175743579274" style="stroke: rgb(131, 105, 191);"></path><path d="M5,411.56085270090136C258.75,411.56085270090136,258.75,368.04882613966544,512.5,368.04882613966544" stroke-width="0.6509115306977512" style="stroke: rgb(134, 105, 191);"></path><path d="M5,413.8368905731229C258.75,413.8368905731229,258.75,538.3898589870221,512.5,538.3898589870221" stroke-width="1.300962067307278" style="stroke: rgb(134, 105, 191);"></path><path d="M5,412.53635900285974C258.75,412.53635900285974,258.75,493.0602897432283,512.5,493.0602897432283" stroke-width="1.3001010732190534" style="stroke: rgb(134, 105, 191);"></path><path d="M5,327.89856683358624C258.75,327.89856683358624,258.75,367.0724588436188,512.5,367.0724588436188" stroke-width="1.3018230613955024" style="stroke: rgb(137, 105, 191);"></path><path d="M5,330.8276687217261C258.75,330.8276687217261,258.75,468.5607346381669,512.5,468.5607346381669" stroke-width="0.6509115306977512" style="stroke: rgb(137, 105, 191);"></path><path d="M5,329.5258456603307C258.75,329.5258456603307,258.75,401.0506978659443,512.5,401.0506978659443" stroke-width="1.9527345920932537" style="stroke: rgb(137, 105, 191);"></path><path d="M5,548.0424953854753C258.75,548.0424953854753,258.75,659.9995349480096,512.5,659.9995349480096" stroke-width="1.300962067307278" style="stroke: rgb(140, 105, 191);"></path><path d="M5,545.1159764796C258.75,545.1159764796,258.75,619.4506353790824,512.5,619.4506353790824" stroke-width="1.95015160982858" style="stroke: rgb(140, 105, 191);"></path><path d="M5,543.1649638756833C258.75,543.1649638756833,258.75,606.7161181548813,512.5,606.7161181548813" stroke-width="1.951873598005029" style="stroke: rgb(140, 105, 191);"></path><path d="M5,546.741533318168C258.75,546.741533318168,258.75,631.8269790625822,512.5,631.8269790625822" stroke-width="1.300962067307278" style="stroke: rgb(140, 105, 191);"></path><path d="M5,541.5389765400713C258.75,541.5389765400713,258.75,595.0901308192692,512.5,595.0901308192692" stroke-width="1.3001010732190534" style="stroke: rgb(140, 105, 191);"></path><path d="M5,540.5634702381129C258.75,540.5634702381129,258.75,469.2116461688646,512.5,469.2116461688646" stroke-width="0.6509115306977512" style="stroke: rgb(140, 105, 191);"></path><path d="M5,539.9125587074152C258.75,539.9125587074152,258.75,402.35252092733975,512.5,402.35252092733975" stroke-width="0.6509115306977512" style="stroke: rgb(140, 105, 191);"></path><path d="M5,425.46373890282314C258.75,425.46373890282314,258.75,568.536243819704,512.5,568.536243819704" stroke-width="0.6509115306977512" style="stroke: rgb(142, 105, 191);"></path><path d="M5,424.8128273721254C258.75,424.8128273721254,258.75,427.859439115624,512.5,427.859439115624" stroke-width="0.6509115306977512" style="stroke: rgb(142, 105, 191);"></path><path d="M5,288.90031761755154C258.75,288.90031761755154,258.75,340.1259585398233,512.5,340.1259585398233" stroke-width="1.3001010732190534" style="stroke: rgb(145, 105, 191);"></path><path d="M5,289.87539342246583C258.75,289.87539342246583,258.75,413.6530524976031,512.5,413.6530524976031" stroke-width="0.6500505366095267" style="stroke: rgb(145, 105, 191);"></path><path d="M5,246.73834562433584C258.75,246.73834562433584,258.75,413.0030019609936,512.5,413.0030019609936" stroke-width="0.6500505366095267" style="stroke: rgb(148, 105, 191);"></path><path d="M5,245.11235828872378C258.75,245.11235828872378,258.75,266.7624376211224,512.5,266.7624376211224" stroke-width="2.601924134614556" style="stroke: rgb(148, 105, 191);"></path><path d="M5,243.16134568480697C258.75,243.16134568480697,258.75,254.16137448059612,512.5,254.16137448059612" stroke-width="1.3001010732190534" style="stroke: rgb(148, 105, 191);"></path><path d="M5,436.4392452047815C258.75,436.4392452047815,258.75,455.1598079896801,512.5,455.1598079896801" stroke-width="1.3001010732190534" style="stroke: rgb(151, 105, 191);"></path><path d="M5,437.4143210096958C258.75,437.4143210096958,258.75,670.9750412499681,512.5,670.9750412499681" stroke-width="0.6500505366095267" style="stroke: rgb(151, 105, 191);"></path><path d="M5,115.37741776642535C258.75,115.37741776642535,258.75,292.7162117411951,512.5,292.7162117411951" stroke-width="1.3018230613955024" style="stroke: rgb(153, 105, 191);"></path><path d="M5,90.30096494688564C258.75,90.30096494688564,258.75,140.30096494688593,512.5,140.30096494688593" stroke-width="44.94905736985028" style="stroke: rgb(153, 105, 191);"></path><path d="M5,113.7509999337692C258.75,113.7509999337692,258.75,216.76884756373235,512.5,216.76884756373235" stroke-width="1.9510126039168048" style="stroke: rgb(153, 105, 191);"></path><path d="M5,138.9544177059543C258.75,138.9544177059543,258.75,218.71942967060502,512.5,218.71942967060502" stroke-width="0.6500505366095267" style="stroke: rgb(156, 105, 191);"></path><path d="M5,138.30393667230067C258.75,138.30393667230067,258.75,164.40105047037898,512.5,164.40105047037898" stroke-width="0.6509115306977512" style="stroke: rgb(156, 105, 191);"></path><path d="M5,127.6534556386469C258.75,127.6534556386469,258.75,218.0693791339955,512.5,218.0693791339955" stroke-width="0.6500505366095267" style="stroke: rgb(159, 105, 191);"></path><path d="M5,126.67837983373262C258.75,126.67837983373262,258.75,163.42554416842057,512.5,163.42554416842057" stroke-width="1.3001010732190534" style="stroke: rgb(159, 105, 191);"></path><path d="M5,41.30010107321843C258.75,41.30010107321843,258.75,111.30010107321877,512.5,111.30010107321877" stroke-width="2.600202146438107" style="stroke: rgb(162, 105, 191);"></path><path d="M5,55.2133192041989C258.75,55.2133192041989,258.75,115.2133192041993,512.5,115.2133192041993" stroke-width="5.22623411552295" style="stroke: rgb(164, 105, 191);"></path><path d="M517.5,131.30831219242472C771.25,131.30831219242472,771.25,221.3083121924244,1025,221.3083121924244" stroke-width="0.05079865120524779" style="stroke: rgb(167, 105, 191);"></path><path d="M517.5,131.2067148900142C771.25,131.2067148900142,771.25,211.20671489001393,1025,211.20671489001393" stroke-width="0.15239595361574335" style="stroke: rgb(167, 105, 191);"></path><path d="M517.5,136.77304167038588C771.25,136.77304167038588,771.25,307.72530113196217,1025,307.72530113196217" stroke-width="0.06801853296973856" style="stroke: rgb(167, 105, 191);"></path><path d="M517.5,129.6478850932837C771.25,129.6478850932837,771.25,189.64788509328335,1025,189.64788509328335" stroke-width="0.25313226193801436" style="stroke: rgb(167, 105, 191);"></path><path d="M517.5,136.68823375269577C771.25,136.68823375269577,771.25,297.43729860945086,1025,297.43729860945086" stroke-width="0.10159730241049557" style="stroke: rgb(167, 105, 191);"></path><path d="M517.5,171.6527731784501C771.25,171.6527731784501,771.25,415.4919458178435,1025,415.4919458178435" stroke-width="68.28113616664692" style="stroke: rgb(167, 105, 191);"></path><path d="M517.5,135.9839405885281C771.25,135.9839405885281,771.25,265.98394058852773,1025,265.98394058852773" stroke-width="1.3069890259248498" style="stroke: rgb(167, 105, 191);"></path><path d="M517.5,129.19284971765703C771.25,129.19284971765703,771.25,179.19284971765674,1025,179.19284971765674" stroke-width="0.6569384893153231" style="stroke: rgb(167, 105, 191);"></path><path d="M517.5,134.67006360989745C771.25,134.67006360989745,771.25,254.67006360989703,1025,254.67006360989703" stroke-width="1.3207649313364425" style="stroke: rgb(167, 105, 191);"></path><path d="M517.5,128.5328977490329C771.25,128.5328977490329,771.25,168.53289774903257,1025,168.53289774903257" stroke-width="0.6629654479328948" style="stroke: rgb(167, 105, 191);"></path><path d="M517.5,133.34413271403164C771.25,133.34413271403164,771.25,243.3441327140313,1025,243.3441327140313" stroke-width="1.331096860395137" style="stroke: rgb(167, 105, 191);"></path><path d="M517.5,126.49449424516132C771.25,126.49449424516132,771.25,146.49449424516118,1025,146.49449424516118" stroke-width="0.6689924065504665" style="stroke: rgb(167, 105, 191);"></path><path d="M517.5,132.0061479009307C771.25,132.0061479009307,771.25,232.0061479009304,1025,232.0061479009304" stroke-width="1.3448727658067297" style="stroke: rgb(167, 105, 191);"></path><path d="M517.5,124.44317582996635C771.25,124.44317582996635,771.25,124.4431758299662,1025,124.4431758299662" stroke-width="0.6750193651680383" style="stroke: rgb(167, 105, 191);"></path><path d="M517.5,130.45248406872955C771.25,130.45248406872955,771.25,200.45248406872912,1025,200.45248406872912" stroke-width="1.3560656889536484" style="stroke: rgb(167, 105, 191);"></path><path d="M517.5,122.37334604187456C771.25,122.37334604187456,771.25,102.3733460418745,1025,102.3733460418745" stroke-width="0.6819073178738346" style="stroke: rgb(167, 105, 191);"></path><path d="M517.5,118.14930904504497C771.25,118.14930904504497,771.25,68.14930904504477,1025,68.14930904504477" stroke-width="0.6836293060502838" style="stroke: rgb(167, 105, 191);"></path><path d="M517.5,127.51520273675152C771.25,127.51520273675152,771.25,157.5152027367513,1025,157.5152027367513" stroke-width="1.3724245766299148" style="stroke: rgb(167, 105, 191);"></path><path d="M517.5,125.47034177721824C771.25,125.47034177721824,771.25,135.4703417772181,1025,135.4703417772181" stroke-width="1.379312529335711" style="stroke: rgb(167, 105, 191);"></path><path d="M517.5,114.6416191296182C771.25,114.6416191296182,771.25,34.641619129617865,1025,34.641619129617865" stroke-width="0.692239246932529" style="stroke: rgb(167, 105, 191);"></path><path d="M517.5,123.40998292409691C771.25,123.40998292409691,771.25,113.40998292409678,1025,113.40998292409678" stroke-width="1.3913664465708546" style="stroke: rgb(167, 105, 191);"></path><path d="M517.5,121.33369568034344C771.25,121.33369568034344,771.25,91.33369568034331,1025,91.33369568034331" stroke-width="1.397393405188426" style="stroke: rgb(167, 105, 191);"></path><path d="M517.5,117.10578421011684C771.25,117.10578421011684,771.25,57.10578421011647,1025,57.10578421011647" stroke-width="1.403420363805998" style="stroke: rgb(167, 105, 191);"></path><path d="M517.5,137.1596280159987C771.25,137.1596280159987,771.25,318.2479245435145,1025,318.2479245435145" stroke-width="0.7051541582558971" style="stroke: rgb(167, 105, 191);"></path><path d="M517.5,115.69590639064916C771.25,115.69590639064916,771.25,45.695906390648844,1025,45.695906390648844" stroke-width="1.4163352751293665" style="stroke: rgb(167, 105, 191);"></path><path d="M517.5,113.58431838927848C771.25,113.58431838927848,771.25,23.58431838927809,1025,23.58431838927809" stroke-width="1.422362233746938" style="stroke: rgb(167, 105, 191);"></path><path d="M517.5,119.56306133790966C771.25,119.56306133790966,771.25,79.56306133790949,1025,79.56306133790949" stroke-width="2.143875279679101" style="stroke: rgb(167, 105, 191);"></path><path d="M517.5,112.15549869986985C771.25,112.15549869986985,771.25,12.155498699869414,1025,12.155498699869414" stroke-width="1.4352771450703061" style="stroke: rgb(167, 105, 191);"></path><path d="M517.5,110.7189300636672C771.25,110.7189300636672,771.25,0.7189300636668077,1025,0.7189300636668077" stroke-width="1.4378601273349796" style="stroke: rgb(167, 105, 191);"></path><path d="M517.5,292.7881047475618C771.25,292.7881047475618,771.25,339.8347366481125,1025,339.8347366481125" stroke-width="0.03357876944075701" style="stroke: rgb(170, 105, 191);"></path><path d="M517.5,305.4894895370502C771.25,305.4894895370502,771.25,496.1335131150419,1025,496.1335131150419" stroke-width="25.369190809536047" style="stroke: rgb(170, 105, 191);"></path><path d="M517.5,292.4183077866694C771.25,292.4183077866694,771.25,318.95350919881446,1025,318.95350919881446" stroke-width="0.7060151523441217" style="stroke: rgb(170, 105, 191);"></path><path d="M517.5,216.1670126960634C771.25,216.1670126960634,771.25,339.78350749986316,1025,339.78350749986316" stroke-width="0.0688795270579631" style="stroke: rgb(173, 105, 191);"></path><path d="M517.5,216.06455439956468C771.25,216.06455439956468,771.25,307.8273289314168,1025,307.8273289314168" stroke-width="0.13603706593947712" style="stroke: rgb(173, 105, 191);"></path><path d="M517.5,215.89493856418443C771.25,215.89493856418443,771.25,297.5896945630666,1025,297.5896945630666" stroke-width="0.20319460482099114" style="stroke: rgb(173, 105, 191);"></path><path d="M517.5,242.86213440146523C771.25,242.86213440146523,771.25,775.1939281199523,1025,775.1939281199523" stroke-width="1.2983790850426045" style="stroke: rgb(173, 105, 191);"></path><path d="M517.5,229.20719865926816C771.25,229.20719865926816,771.25,462.63826010084273,1025,462.63826010084273" stroke-width="26.01149239935155" style="stroke: rgb(173, 105, 191);"></path><path d="M517.5,691.167058769326C771.25,691.167058769326,771.25,742.7555928621003,1025,742.7555928621003" stroke-width="0.23763436834997267" style="stroke: rgb(175, 105, 191);"></path><path d="M517.5,692.5842550385436C771.25,692.5842550385436,771.25,782.3350130876865,1025,782.3350130876865" stroke-width="2.596758170085209" style="stroke: rgb(175, 105, 191);"></path><path d="M517.5,688.1234446674523C771.25,688.1234446674523,771.25,592.3879167110603,1025,592.3879167110603" stroke-width="5.849593835397516" style="stroke: rgb(175, 105, 191);"></path><path d="M517.5,278.67642747924566C771.25,278.67642747924566,771.25,287.25046289230613,1025,287.25046289230613" stroke-width="0.27207413187895424" style="stroke: rgb(178, 105, 191);"></path><path d="M517.5,280.4388823778413C771.25,280.4388823778413,771.25,481.82249987761776,1025,481.82249987761776" stroke-width="3.252835665312307" style="stroke: rgb(178, 105, 191);"></path><path d="M517.5,416.0806253293522C771.25,416.0806253293522,771.25,625.8659181681272,1025,625.8659181681272" stroke-width="0.3065138954079358" style="stroke: rgb(181, 105, 191);"></path><path d="M517.5,415.60277361038754C771.25,415.60277361038754,771.25,615.3880664491626,1025,615.3880664491626" stroke-width="0.6491895425213022" style="stroke: rgb(181, 105, 191);"></path><path d="M517.5,413.9780777659078C771.25,413.9780777659078,771.25,532.8811712975095,1025,532.8811712975095" stroke-width="2.600202146438107" style="stroke: rgb(181, 105, 191);"></path><path d="M517.5,572.0809564809244C771.25,572.0809564809244,771.25,689.3288363909664,1025,689.3288363909664" stroke-width="0.3409536589369173" style="stroke: rgb(183, 105, 191);"></path><path d="M517.5,571.7055630584584C771.25,571.7055630584584,771.25,678.9534429685004,1025,678.9534429685004" stroke-width="0.4098331859948804" style="stroke: rgb(183, 105, 191);"></path><path d="M517.5,571.1588318124359C771.25,571.1588318124359,771.25,668.4067117224779,1025,668.4067117224779" stroke-width="0.6836293060502838" style="stroke: rgb(183, 105, 191);"></path><path d="M517.5,569.1888773385782C771.25,569.1888773385782,771.25,571.5759676104967,1025,571.5759676104967" stroke-width="3.2562796416652056" style="stroke: rgb(183, 105, 191);"></path><path d="M517.5,492.5979359178517C771.25,492.5979359178517,771.25,371.1636810232871,1025,371.1636810232871" stroke-width="0.3753934224658989" style="stroke: rgb(186, 105, 191);"></path><path d="M517.5,494.08659469639196C771.25,494.08659469639196,771.25,548.4884111347556,1025,548.4884111347556" stroke-width="2.601924134614556" style="stroke: rgb(186, 105, 191);"></path><path d="M517.5,339.69718348388744C771.25,339.69718348388744,771.25,329.52779225566036,1025,329.52779225566036" stroke-width="0.4425509613474129" style="stroke: rgb(189, 105, 191);"></path><path d="M517.5,341.2185600377802C771.25,341.2185600377802,771.25,511.4200326544245,1025,511.4200326544245" stroke-width="2.600202146438107" style="stroke: rgb(189, 105, 191);"></path><path d="M517.5,265.6999709162533C771.25,265.6999709162533,771.25,276.87593046392834,1025,276.87593046392834" stroke-width="0.47699072487639443" style="stroke: rgb(191, 105, 190);"></path><path d="M517.5,267.23942834599876C771.25,267.23942834599876,771.25,478.89511997765436,1025,478.89511997765436" stroke-width="2.601924134614556" style="stroke: rgb(191, 105, 190);"></path><path d="M517.5,442.30475159312755C771.25,442.30475159312755,771.25,646.888779144938,1025,646.888779144938" stroke-width="0.5097085002289269" style="stroke: rgb(191, 105, 187);"></path><path d="M517.5,441.74252245351687C771.25,441.74252245351687,771.25,636.3265500053274,1025,636.3265500053274" stroke-width="0.6147497789923206" style="stroke: rgb(191, 105, 187);"></path><path d="M517.5,439.8100212224969C771.25,439.8100212224969,771.25,537.757411316169,1025,537.757411316169" stroke-width="3.2502526830476337" style="stroke: rgb(191, 105, 187);"></path><path d="M517.5,453.4119899905843C771.25,453.4119899905843,771.25,360.70391018017517,1025,360.70391018017517" stroke-width="0.5441482637579085" style="stroke: rgb(191, 105, 184);"></path><path d="M517.5,452.8497608509736C771.25,452.8497608509736,771.25,350.14168104056455,1025,350.14168104056455" stroke-width="0.5803100154633392" style="stroke: rgb(191, 105, 184);"></path><path d="M517.5,455.95967149764067C771.25,455.95967149764067,771.25,541.6581450328703,1025,541.6581450328703" stroke-width="4.551214750354911" style="stroke: rgb(191, 105, 184);"></path><path d="M517.5,539.3985135613772C771.25,539.3985135613772,771.25,699.8574867611363,1025,699.8574867611363" stroke-width="0.7163470814028162" style="stroke: rgb(191, 105, 182);"></path><path d="M517.5,538.3898589870221C771.25,538.3898589870221,771.25,561.4932963403431,1025,561.4932963403431" stroke-width="1.300962067307278" style="stroke: rgb(191, 105, 182);"></path><path d="M517.5,632.10206667377C771.25,632.10206667377,771.25,732.2613822554594,1025,732.2613822554594" stroke-width="0.7507868449317978" style="stroke: rgb(191, 105, 179);"></path><path d="M517.5,631.0761922176504C771.25,631.0761922176504,771.25,580.3585378074309,1025,580.3585378074309" stroke-width="1.300962067307278" style="stroke: rgb(191, 105, 179);"></path><path d="M517.5,620.0339588738545C771.25,620.0339588738545,771.25,710.60741261198,1025,710.60741261198" stroke-width="0.7835046202843302" style="stroke: rgb(191, 105, 176);"></path><path d="M517.5,618.6671307587981C771.25,618.6671307587981,771.25,578.732980968863,1025,578.732980968863" stroke-width="1.95015160982858" style="stroke: rgb(191, 105, 176);"></path><path d="M517.5,660.2410437897565C771.25,660.2410437897565,771.25,764.1357663855243,1025,764.1357663855243" stroke-width="0.8179443838133118" style="stroke: rgb(191, 105, 173);"></path><path d="M517.5,659.4058795241788C771.25,659.4058795241788,771.25,753.3006021199465,1025,753.3006021199465" stroke-width="0.8523841473422934" style="stroke: rgb(191, 105, 173);"></path><path d="M517.5,658.3292064168539C771.25,658.3292064168539,771.25,586.2115756191814,1025,586.2115756191814" stroke-width="1.300962067307278" style="stroke: rgb(191, 105, 173);"></path><path d="M517.5,583.9966683272239C771.25,583.9966683272239,771.25,721.4425768775578,1025,721.4425768775578" stroke-width="0.886823910871275" style="stroke: rgb(191, 105, 171);"></path><path d="M517.5,582.9023448410906C771.25,582.9023448410906,771.25,573.855018962027,1025,573.855018962027" stroke-width="1.3018230613955024" style="stroke: rgb(191, 105, 171);"></path><path d="M517.5,481.94960736941863C771.25,481.94960736941863,771.25,657.6042652322526,1025,657.6042652322526" stroke-width="0.9212636744002564" style="stroke: rgb(191, 105, 168);"></path><path d="M517.5,480.513038733216C771.25,480.513038733216,771.25,546.2115122684457,1025,546.2115122684457" stroke-width="1.951873598005029" style="stroke: rgb(191, 105, 168);"></path><path d="M517.5,798.5221482810357C771.25,798.5221482810357,771.25,908.5221482810363,1025,908.5221482810363" stroke-width="0.955703437929238" style="stroke: rgb(191, 105, 165);"></path><path d="M517.5,797.549224961342C771.25,797.549224961342,771.25,897.5492249613425,1025,897.5492249613425" stroke-width="0.9901432014582195" style="stroke: rgb(191, 105, 165);"></path><path d="M517.5,795.7574962637467C771.25,795.7574962637467,771.25,796.6120170586258,1025,796.6120170586258" stroke-width="2.5933141937323105" style="stroke: rgb(191, 105, 165);"></path><path d="M517.5,734.139656696605C771.25,734.139656696605,771.25,808.4201046438974,1025,808.4201046438974" stroke-width="1.0228609768107522" style="stroke: rgb(191, 105, 162);"></path><path d="M517.5,732.9790366656783C771.25,732.9790366656783,771.25,786.8793398853356,1025,786.8793398853356" stroke-width="1.2983790850426045" style="stroke: rgb(191, 105, 162);"></path><path d="M517.5,731.6806575806357C771.25,731.6806575806357,771.25,600.5139789157234,1025,600.5139789157234" stroke-width="1.2983790850426045" style="stroke: rgb(191, 105, 162);"></path><path d="M517.5,760.1110970331702C771.25,760.1110970331702,771.25,875.2977254206352,1025,875.2977254206352" stroke-width="1.0573007403397334" style="stroke: rgb(191, 105, 160);"></path><path d="M517.5,759.036576411066C771.25,759.036576411066,771.25,864.2232047985309,1025,864.2232047985309" stroke-width="1.0917405038687151" style="stroke: rgb(191, 105, 160);"></path><path d="M517.5,757.9276160254328C771.25,757.9276160254328,771.25,853.1142444128977,1025,853.1142444128977" stroke-width="1.1261802673976966" style="stroke: rgb(191, 105, 160);"></path><path d="M517.5,756.7842158762705C771.25,756.7842158762705,771.25,841.9708442637354,1025,841.9708442637354" stroke-width="1.1606200309266783" style="stroke: rgb(191, 105, 160);"></path><path d="M517.5,755.6063759635794C771.25,755.6063759635794,771.25,830.7930043510443,1025,830.7930043510443" stroke-width="1.1950597944556598" style="stroke: rgb(191, 105, 160);"></path><path d="M517.5,754.3768764055948C771.25,754.3768764055948,771.25,819.5635047930596,1025,819.5635047930596" stroke-width="1.2639393215136228" style="stroke: rgb(191, 105, 160);"></path><path d="M517.5,751.1481485747528C771.25,751.1481485747528,771.25,790.1252875979421,1025,790.1252875979421" stroke-width="5.193516340170418" style="stroke: rgb(191, 105, 160);"></path><path d="M517.5,746.601238794839C771.25,746.601238794839,771.25,603.1133200680733,1025,603.1133200680733" stroke-width="3.90030321965716" style="stroke: rgb(191, 105, 160);"></path><path d="M517.5,783.8469503819765C771.25,783.8469503819765,771.25,886.4402645757092,1025,886.4402645757092" stroke-width="1.227777569808192" style="stroke: rgb(191, 105, 157);"></path><path d="M517.5,782.5847330486392C771.25,782.5847330486392,771.25,794.6670314133265,1025,794.6670314133265" stroke-width="1.2966570968661553" style="stroke: rgb(191, 105, 157);"></path><path d="M517.5,771.2880759517731C771.25,771.2880759517731,771.25,793.3703743164604,1025,793.3703743164604" stroke-width="1.2966570968661553" style="stroke: rgb(191, 105, 154);"></path><path d="M517.5,704.5318236661075C771.25,704.5318236661075,771.25,784.2825817152504,1025,784.2825817152504" stroke-width="1.2983790850426045" style="stroke: rgb(191, 105, 152);"></path><path d="M517.5,674.2248634359715C771.25,674.2248634359715,771.25,780.062849688862,1025,780.062849688862" stroke-width="1.9475686275639066" style="stroke: rgb(191, 105, 149);"></path><path d="M517.5,671.9505475519264C771.25,671.9505475519264,771.25,588.1625882230983,1025,588.1625882230983" stroke-width="2.6010631405263314" style="stroke: rgb(191, 105, 149);"></path><path d="M517.5,720.3822784955933C771.25,720.3822784955933,771.25,785.580960800293,1025,785.580960800293" stroke-width="1.2983790850426045" style="stroke: rgb(191, 105, 146);"></path><path d="M517.5,717.4570510808503C771.25,717.4570510808503,771.25,597.5887515009805,1025,597.5887515009805" stroke-width="4.552075744443137" style="stroke: rgb(191, 105, 146);"></path><path d="M517.5,647.3541306119397C771.25,647.3541306119397,771.25,778.7644706038194,1025,778.7644706038194" stroke-width="0.6491895425213022" style="stroke: rgb(191, 105, 143);"></path><path d="M517.5,644.7534979684574C771.25,644.7534979684574,771.25,583.2850567133062,1025,583.2850567133062" stroke-width="4.552075744443135" style="stroke: rgb(191, 105, 143);"></path><path d="M517.5,516.4384158860611C771.25,516.4384158860611,771.25,777.7906862900375,1025,777.7906862900375" stroke-width="1.2983790850426045" style="stroke: rgb(191, 105, 141);"></path><path d="M517.5,510.5883915536195C771.25,510.5883915536195,771.25,554.9902079919832,1025,554.9902079919832" stroke-width="10.401669579840654" style="stroke: rgb(191, 105, 141);"></path><path d="M517.5,389.4251410273763C771.25,389.4251410273763,771.25,776.4923072049949,1025,776.4923072049949" stroke-width="1.2983790850426045" style="stroke: rgb(191, 105, 138);"></path><path d="M517.5,383.5751166949347C771.25,383.5751166949347,771.25,523.7765893115791,1025,523.7765893115791" stroke-width="10.401669579840656" style="stroke: rgb(191, 105, 138);"></path><path d="M517.5,328.82499647251603C771.25,328.82499647251603,771.25,509.4690200505077,1025,509.4690200505077" stroke-width="1.3018230613955024" style="stroke: rgb(191, 105, 135);"></path><path d="M517.5,367.3979146089677C771.25,367.3979146089677,771.25,517.5993872256121,1025,517.5993872256121" stroke-width="1.9527345920932537" style="stroke: rgb(191, 105, 132);"></path><path d="M517.5,606.7161181548813C771.25,606.7161181548813,771.25,576.7819683649462,1025,576.7819683649462" stroke-width="1.951873598005029" style="stroke: rgb(191, 105, 130);"></path><path d="M517.5,595.0901308192692C771.25,595.0901308192692,771.25,575.1559810293343,1025,575.1559810293343" stroke-width="1.3001010732190534" style="stroke: rgb(191, 105, 127);"></path><path d="M517.5,468.88619040351574C771.25,468.88619040351574,771.25,544.5846639387455,1025,544.5846639387455" stroke-width="1.3018230613955024" style="stroke: rgb(191, 105, 124);"></path><path d="M517.5,401.37615363129316C771.25,401.37615363129316,771.25,530.2792471628949,1025,530.2792471628949" stroke-width="2.603646122791005" style="stroke: rgb(191, 105, 121);"></path><path d="M517.5,527.4134916909754C771.25,527.4134916909754,771.25,560.5169290442965,1025,560.5169290442965" stroke-width="0.6517725247859758" style="stroke: rgb(191, 105, 119);"></path><path d="M517.5,427.2093885790145C771.25,427.2093885790145,771.25,535.1567786726869,1025,535.1567786726869" stroke-width="1.9510126039168048" style="stroke: rgb(191, 105, 116);"></path><path d="M517.5,254.4863997489009C771.25,254.4863997489009,771.25,476.61908210543277,1025,476.61908210543277" stroke-width="1.95015160982858" style="stroke: rgb(191, 105, 113);"></path><path d="M517.5,354.47010421196023C771.25,354.47010421196023,771.25,514.6715768286044,1025,514.6715768286044" stroke-width="3.902886201921834" style="stroke: rgb(191, 105, 111);"></path><path d="M517.5,553.6587123099122C771.25,553.6587123099122,771.25,566.0458025818305,1025,566.0458025818305" stroke-width="7.804050415667218" style="stroke: rgb(191, 105, 108);"></path></g><g class="nodes" font-family="Arial, Helvetica" font-size="10"><g><rect x="0" y="539.5871029420663" height="9.1058734770628" width="5" fill="#000"></rect><text x="11" y="544.1400396805977" dy="0.35em" text-anchor="start">27.6</text></g><g><rect x="0" y="327.2476553028885" height="3.905469184186586" width="5" fill="#000"></rect><text x="11" y="329.2003898949818" dy="0.35em" text-anchor="start">27.7</text></g><g><rect x="0" y="411.2353969355525" height="3.2519746712240476" width="5" fill="#000"></rect><text x="11" y="412.8613842711645" dy="0.35em" text-anchor="start">27.8</text></g><g><rect x="0" y="483.61263328850845" height="4.559824691237168" width="5" fill="#000"></rect><text x="11" y="485.89254563412703" dy="0.35em" text-anchor="start">27.9</text></g><g><rect x="0" y="424.48737160677655" height="1.301823061395453" width="5" fill="#000"></rect><text x="11" y="425.1382831374743" dy="0.35em" text-anchor="start">28</text></g><g><rect x="0" y="397.33423272180704" height="3.90116421374546" width="5" fill="#000"></rect><text x="11" y="399.28481482867977" dy="0.35em" text-anchor="start">28.1</text></g><g><rect x="0" y="288.250267080942" height="1.9501516098287084" width="5" fill="#000"></rect><text x="11" y="289.2253428858564" dy="0.35em" text-anchor="start">28.2</text></g><g><rect x="0" y="385.3832201178902" height="1.9510126039168654" width="5" fill="#000"></rect><text x="11" y="386.3587264198486" dy="0.35em" text-anchor="start">28.3</text></g><g><rect x="0" y="242.51129514819746" height="4.552075744443073" width="5" fill="#000"></rect><text x="11" y="244.787333020419" dy="0.35em" text-anchor="start">28.4</text></g><g><rect x="0" y="257.06337089264053" height="3.2519746712241613" width="5" fill="#000"></rect><text x="11" y="258.6893582282526" dy="0.35em" text-anchor="start">28.5</text></g><g><rect x="0" y="300.20041869077073" height="3.146072398372553" width="5" fill="#000"></rect><text x="11" y="301.773454889957" dy="0.35em" text-anchor="start">28.6</text></g><g><rect x="0" y="370.6615285380669" height="4.7216915798233" width="5" fill="#000"></rect><text x="11" y="373.0223743279785" dy="0.35em" text-anchor="start">28.7</text></g><g><rect x="0" y="313.3464910891433" height="3.9011642137452327" width="5" fill="#000"></rect><text x="11" y="315.2970731960159" dy="0.35em" text-anchor="start">28.8</text></g><g><rect x="0" y="435.789194668172" height="1.950151609828822" width="5" fill="#000"></rect><text x="11" y="436.7642704730864" dy="0.35em" text-anchor="start">28.9</text></g><g><rect x="0" y="573.8942417060936" height="3.9011642137453464" width="5" fill="#000"></rect><text x="11" y="575.8448238129663" dy="0.35em" text-anchor="start">29</text></g><g><rect x="0" y="558.6929764191291" height="5.201265286964485" width="5" fill="#000"></rect><text x="11" y="561.2936090626113" dy="0.35em" text-anchor="start">29.1</text></g><g><rect x="0" y="587.7954059198389" height="12.349238207404596" width="5" fill="#000"></rect><text x="11" y="593.9700250235412" dy="0.35em" text-anchor="start">29.2</text></g><g><rect x="0" y="498.1724579797456" height="10.40080858575243" width="5" fill="#000"></rect><text x="11" y="503.37286227262183" dy="0.35em" text-anchor="start">29.3</text></g><g><rect x="0" y="447.7393462780008" height="14.952023336107345" width="5" fill="#000"></rect><text x="11" y="455.2153579460545" dy="0.35em" text-anchor="start">29.4</text></g><g><rect x="0" y="341.1531244870751" height="19.50840405099177" width="5" fill="#000"></rect><text x="11" y="350.907326512571" dy="0.35em" text-anchor="start">29.5</text></g><g><rect x="0" y="164.70112274780905" height="67.81017240038841" width="5" fill="#000"></rect><text x="11" y="198.60620894800326" dy="0.35em" text-anchor="start">29.6</text></g><g><rect x="0" y="67.82643626196051" height="48.201893035162584" width="5" fill="#000"></rect><text x="11" y="91.9273827795418" dy="0.35em" text-anchor="start">29.7</text></g><g><rect x="0" y="52.600202146437425" height="5.226234115523084" width="5" fill="#000"></rect><text x="11" y="55.21331920419897" dy="0.35em" text-anchor="start">29.8</text></g><g><rect x="0" y="39.999999999999375" height="2.6002021464380505" width="5" fill="#000"></rect><text x="11" y="41.3001010732184" dy="0.35em" text-anchor="start">29.9</text></g><g><rect x="0" y="126.0283292971231" height="1.9501516098287084" width="5" fill="#000"></rect><text x="11" y="127.00340510203745" dy="0.35em" text-anchor="start">30</text></g><g><rect x="0" y="270.3153455638647" height="7.934921517077328" width="5" fill="#000"></rect><text x="11" y="274.28280632240336" dy="0.35em" text-anchor="start">30.1</text></g><g><rect x="0" y="149.2794429742592" height="5.42167977354984" width="5" fill="#000"></rect><text x="11" y="151.99028286103413" dy="0.35em" text-anchor="start">30.2</text></g><g><rect x="0" y="137.9784809069518" height="1.3009620673074096" width="5" fill="#000"></rect><text x="11" y="138.6289619406055" dy="0.35em" text-anchor="start">30.3</text></g><g><rect x="0" y="788.7954980663634" height="0.6491895425212988" width="5" fill="#000"></rect><text x="11" y="789.120092837624" dy="0.35em" text-anchor="start">31.1</text></g><g><rect x="0" y="867.7033429031345" height="1.29665709686617" width="5" fill="#000"></rect><text x="11" y="868.3516714515677" dy="0.35em" text-anchor="start">32.3</text></g><g><rect x="0" y="810.7413447057509" height="2.4917168913218575" width="5" fill="#000"></rect><text x="11" y="811.9872031514118" dy="0.35em" text-anchor="start">34</text></g><g><rect x="0" y="642.7035185574468" height="1.2983790850426544" width="5" fill="#000"></rect><text x="11" y="643.3527080999681" dy="0.35em" text-anchor="start">35.4</text></g><g><rect x="0" y="777.6348780354367" height="1.1606200309266796" width="5" fill="#000"></rect><text x="11" y="778.2151880509" dy="0.35em" text-anchor="start">35.8</text></g><g><rect x="0" y="631.4051394724042" height="1.2983790850425976" width="5" fill="#000"></rect><text x="11" y="632.0543290149255" dy="0.35em" text-anchor="start">37.5</text></g><g><rect x="0" y="766.508697768039" height="1.1261802673976717" width="5" fill="#000"></rect><text x="11" y="767.0717879017379" dy="0.35em" text-anchor="start">38.5</text></g><g><rect x="0" y="755.20859669482" height="1.3001010732190252" width="5" fill="#000"></rect><text x="11" y="755.8586472314296" dy="0.35em" text-anchor="start">40.6</text></g><g><rect x="0" y="743.9102176097774" height="1.2983790850425976" width="5" fill="#000"></rect><text x="11" y="744.5594071522987" dy="0.35em" text-anchor="start">41.4</text></g><g><rect x="0" y="732.8184771059088" height="1.0917405038686638" width="5" fill="#000"></rect><text x="11" y="733.3643473578431" dy="0.35em" text-anchor="start">41.7</text></g><g><rect x="0" y="721.5183760326897" height="1.3001010732190252" width="5" fill="#000"></rect><text x="11" y="722.1684265692993" dy="0.35em" text-anchor="start">44.7</text></g><g><rect x="0" y="710.2199969476471" height="1.2983790850425976" width="5" fill="#000"></rect><text x="11" y="710.8691864901684" dy="0.35em" text-anchor="start">46</text></g><g><rect x="0" y="687.8625951340882" height="1.0573007403397696" width="5" fill="#000"></rect><text x="11" y="688.3912455042581" dy="0.35em" text-anchor="start">46.7</text></g><g><rect x="0" y="698.919895874428" height="1.300101073219082" width="5" fill="#000"></rect><text x="11" y="699.5699464110376" dy="0.35em" text-anchor="start">50.3</text></g><g><rect x="0" y="620.3822784955935" height="1.0228609768107617" width="5" fill="#000"></rect><text x="11" y="620.8937089839989" dy="0.35em" text-anchor="start">52.2</text></g><g><rect x="0" y="676.5986558125746" height="1.2639393215135897" width="5" fill="#000"></rect><text x="11" y="677.2306254733314" dy="0.35em" text-anchor="start">53</text></g><g><rect x="0" y="665.300276727532" height="1.2983790850425976" width="5" fill="#000"></rect><text x="11" y="665.9494662700533" dy="0.35em" text-anchor="start">57</text></g><g><rect x="0" y="654.0018976424894" height="1.2983790850425976" width="5" fill="#000"></rect><text x="11" y="654.6510871850107" dy="0.35em" text-anchor="start">57.6</text></g><g><rect x="0" y="856.7131997016763" height="0.9901432014581815" width="5" fill="#000"></rect><text x="11" y="857.2082713024054" dy="0.35em" text-anchor="start">61.5</text></g><g><rect x="0" y="799.4446876088847" height="1.29665709686617" width="5" fill="#000"></rect><text x="11" y="800.0930161573178" dy="0.35em" text-anchor="start">74.8</text></g><g><rect x="0" y="845.757496263747" height="0.9557034379292872" width="5" fill="#000"></rect><text x="11" y="846.2353479827117" dy="0.35em" text-anchor="start">76.8</text></g><g><rect x="0" y="610.1446441272435" height="0.23763436834997265" width="5" fill="#000"></rect><text x="11" y="610.2634613114185" dy="0.35em" text-anchor="start">82.7</text></g><g><rect x="0" y="834.5297186939389" height="1.2277775698081541" width="5" fill="#000"></rect><text x="11" y="835.143607478843" dy="0.35em" text-anchor="start">87.4</text></g><g><rect x="0" y="472.69136961410817" height="0.9212636744002793" width="5" fill="#000"></rect><text x="11" y="473.1520014513083" dy="0.35em" text-anchor="start">92.5</text></g><g><rect x="0" y="823.2330615970727" height="1.29665709686617" width="5" fill="#000"></rect><text x="11" y="823.8813901455057" dy="0.35em" text-anchor="start">99.6</text></g><g><rect x="0" y="518.573266565498" height="11.013836376568293" width="5" fill="#000"></rect><text x="11" y="524.0801847537821" dy="0.35em" text-anchor="start">99.9</text></g><g><rect x="1025" y="221.2829128668218" height="0.050798651205241185" width="5" fill="#000"></rect><text x="1019" y="221.3083121924244" dy="0.35em" text-anchor="end">0.06</text></g><g><rect x="1025" y="339.74906773633415" height="0.10245829649875304" width="5" fill="#000"></rect><text x="1019" y="339.80029688458353" dy="0.35em" text-anchor="end">0.11</text></g><g><rect x="1025" y="211.13051691320607" height="0.15239595361572356" width="5" fill="#000"></rect><text x="1019" y="211.20671489001393" dy="0.35em" text-anchor="end">0.17</text></g><g><rect x="1025" y="307.6912918654773" height="0.20405559890923541" width="5" fill="#000"></rect><text x="1019" y="307.7933196649319" dy="0.35em" text-anchor="end">0.22</text></g><g><rect x="1025" y="189.52131896231435" height="0.25313226193793525" width="5" fill="#000"></rect><text x="1019" y="189.64788509328332" dy="0.35em" text-anchor="end">0.28</text></g><g><rect x="1025" y="297.3864999582456" height="0.3047919072316745" width="5" fill="#000"></rect><text x="1019" y="297.53889591186146" dy="0.35em" text-anchor="end">0.34</text></g><g><rect x="1025" y="742.6367756779254" height="0.23763436834997265" width="5" fill="#000"></rect><text x="1019" y="742.7555928621003" dy="0.35em" text-anchor="end">0.39</text></g><g><rect x="1025" y="287.11442582636664" height="0.27207413187898055" width="5" fill="#000"></rect><text x="1019" y="287.25046289230613" dy="0.35em" text-anchor="end">0.45</text></g><g><rect x="1025" y="625.7126612204232" height="0.30651389540798846" width="5" fill="#000"></rect><text x="1019" y="625.8659181681272" dy="0.35em" text-anchor="end">0.51</text></g><g><rect x="1025" y="689.158359561498" height="0.34095365893699636" width="5" fill="#000"></rect><text x="1019" y="689.3288363909664" dy="0.35em" text-anchor="end">0.57</text></g><g><rect x="1025" y="370.97598431205415" height="0.3753934224658906" width="5" fill="#000"></rect><text x="1019" y="371.1636810232871" dy="0.35em" text-anchor="end">0.62</text></g><g><rect x="1025" y="678.748526375503" height="0.4098331859948985" width="5" fill="#000"></rect><text x="1019" y="678.9534429685004" dy="0.35em" text-anchor="end">0.68</text></g><g><rect x="1025" y="329.3065167749867" height="0.44255096134747873" width="5" fill="#000"></rect><text x="1019" y="329.5277922556604" dy="0.35em" text-anchor="end">0.74</text></g><g><rect x="1025" y="276.63743510149015" height="0.47699072487648664" width="5" fill="#000"></rect><text x="1019" y="276.8759304639284" dy="0.35em" text-anchor="end">0.79</text></g><g><rect x="1025" y="646.6339248948235" height="0.5097085002289532" width="5" fill="#000"></rect><text x="1019" y="646.888779144938" dy="0.35em" text-anchor="end">0.85</text></g><g><rect x="1025" y="360.4318360482962" height="0.5441482637579611" width="5" fill="#000"></rect><text x="1019" y="360.70391018017517" dy="0.35em" text-anchor="end">0.9</text></g><g><rect x="1025" y="349.8515260328329" height="0.580310015463283" width="5" fill="#000"></rect><text x="1019" y="350.14168104056455" dy="0.35em" text-anchor="end">0.96</text></g><g><rect x="1025" y="636.0191751158312" height="0.6147497789922909" width="5" fill="#000"></rect><text x="1019" y="636.3265500053274" dy="0.35em" text-anchor="end">1.02</text></g><g><rect x="1025" y="615.0634716779019" height="0.6491895425212988" width="5" fill="#000"></rect><text x="1019" y="615.3880664491626" dy="0.35em" text-anchor="end">1.08</text></g><g><rect x="1025" y="668.0648970694527" height="0.6836293060503067" width="5" fill="#000"></rect><text x="1019" y="668.4067117224779" dy="0.35em" text-anchor="end">1.13</text></g><g><rect x="1025" y="699.4993132204349" height="0.7163470814028869" width="5" fill="#000"></rect><text x="1019" y="699.8574867611364" dy="0.35em" text-anchor="end">1.19</text></g><g><rect x="1025" y="731.8859888329935" height="0.7507868449318948" width="5" fill="#000"></rect><text x="1019" y="732.2613822554595" dy="0.35em" text-anchor="end">1.25</text></g><g><rect x="1025" y="710.2156603018378" height="0.7835046202843614" width="5" fill="#000"></rect><text x="1019" y="710.60741261198" dy="0.35em" text-anchor="end">1.3</text></g><g><rect x="1025" y="763.7267941936177" height="0.8179443838132556" width="5" fill="#000"></rect><text x="1019" y="764.1357663855243" dy="0.35em" text-anchor="end">1.36</text></g><g><rect x="1025" y="752.8744100462753" height="0.8523841473423772" width="5" fill="#000"></rect><text x="1019" y="753.3006021199465" dy="0.35em" text-anchor="end">1.42</text></g><g><rect x="1025" y="720.9991649221222" height="0.8868239108712714" width="5" fill="#000"></rect><text x="1019" y="721.4425768775578" dy="0.35em" text-anchor="end">1.47</text></g><g><rect x="1025" y="657.1436333950525" height="0.9212636744002793" width="5" fill="#000"></rect><text x="1019" y="657.6042652322526" dy="0.35em" text-anchor="end">1.53</text></g><g><rect x="1025" y="908.0442965620716" height="0.9557034379292375" width="5" fill="#000"></rect><text x="1019" y="908.5221482810363" dy="0.35em" text-anchor="end">1.59</text></g><g><rect x="1025" y="897.0541533606133" height="0.9901432014582383" width="5" fill="#000"></rect><text x="1019" y="897.5492249613425" dy="0.35em" text-anchor="end">1.64</text></g><g><rect x="1025" y="807.908674155492" height="1.0228609768107617" width="5" fill="#000"></rect><text x="1019" y="808.4201046438974" dy="0.35em" text-anchor="end">1.7</text></g><g><rect x="1025" y="874.7690750504653" height="1.0573007403397128" width="5" fill="#000"></rect><text x="1019" y="875.2977254206352" dy="0.35em" text-anchor="end">1.75</text></g><g><rect x="1025" y="863.6773345465965" height="1.0917405038687207" width="5" fill="#000"></rect><text x="1019" y="864.2232047985309" dy="0.35em" text-anchor="end">1.81</text></g><g><rect x="1025" y="852.5511542791988" height="1.1261802673976717" width="5" fill="#000"></rect><text x="1019" y="853.1142444128977" dy="0.35em" text-anchor="end">1.87</text></g><g><rect x="1025" y="841.3905342482722" height="1.1606200309266796" width="5" fill="#000"></rect><text x="1019" y="841.9708442637354" dy="0.35em" text-anchor="end">1.93</text></g><g><rect x="1025" y="830.1954744538165" height="1.1950597944556876" width="5" fill="#000"></rect><text x="1019" y="830.7930043510444" dy="0.35em" text-anchor="end">1.98</text></g><g><rect x="1025" y="885.8263757908051" height="1.227777569808211" width="5" fill="#000"></rect><text x="1019" y="886.4402645757092" dy="0.35em" text-anchor="end">2.04</text></g><g><rect x="1025" y="818.9315351323028" height="1.2639393215137034" width="5" fill="#000"></rect><text x="1019" y="819.5635047930596" dy="0.35em" text-anchor="end">2.1</text></g><g><rect x="1025" y="774.544738577431" height="23.363935578061103" width="5" fill="#000"></rect><text x="1019" y="786.2267063664615" dy="0.35em" text-anchor="end">2.15</text></g><g><rect x="1025" y="381.35137773452004" height="223.7120939433819" width="5" fill="#000"></rect><text x="1019" y="493.207424706211" dy="0.35em" text-anchor="end">2.16</text></g><g><rect x="1025" y="265.3304460755653" height="1.3069890259248496" width="5" fill="#000"></rect><text x="1019" y="265.98394058852773" dy="0.35em" text-anchor="end">2.17</text></g><g><rect x="1025" y="178.86438047299907" height="0.6569384893152801" width="5" fill="#000"></rect><text x="1019" y="179.1928497176567" dy="0.35em" text-anchor="end">2.18</text></g><g><rect x="1025" y="254.0096811442288" height="1.3207649313364982" width="5" fill="#000"></rect><text x="1019" y="254.67006360989706" dy="0.35em" text-anchor="end">2.19</text></g><g><rect x="1025" y="168.20141502506613" height="0.6629654479329474" width="5" fill="#000"></rect><text x="1019" y="168.5328977490326" dy="0.35em" text-anchor="end">2.2</text></g><g><rect x="1025" y="242.67858428383374" height="1.3310968603950641" width="5" fill="#000"></rect><text x="1019" y="243.34413271403128" dy="0.35em" text-anchor="end">2.21</text></g><g><rect x="1025" y="146.15999804188596" height="0.6689924065503874" width="5" fill="#000"></rect><text x="1019" y="146.49449424516115" dy="0.35em" text-anchor="end">2.22</text></g><g><rect x="1025" y="231.33371151802703" height="1.3448727658067128" width="5" fill="#000"></rect><text x="1019" y="232.0061479009304" dy="0.35em" text-anchor="end">2.23</text></g><g><rect x="1025" y="124.10566614738218" height="0.6750193651680547" width="5" fill="#000"></rect><text x="1019" y="124.44317582996621" dy="0.35em" text-anchor="end">2.24</text></g><g><rect x="1025" y="199.7744512242523" height="1.3560656889537768" width="5" fill="#000"></rect><text x="1019" y="200.45248406872918" dy="0.35em" text-anchor="end">2.25</text></g><g><rect x="1025" y="102.03239238293759" height="0.6819073178737654" width="5" fill="#000"></rect><text x="1019" y="102.37334604187447" dy="0.35em" text-anchor="end">2.26</text></g><g><rect x="1025" y="67.80749439201963" height="0.6836293060503067" width="5" fill="#000"></rect><text x="1019" y="68.14930904504479" dy="0.35em" text-anchor="end">2.27</text></g><g><rect x="1025" y="156.82899044843634" height="1.3724245766297827" width="5" fill="#000"></rect><text x="1019" y="157.51520273675123" dy="0.35em" text-anchor="end">2.28</text></g><g><rect x="1025" y="134.78068551255024" height="1.3793125293357207" width="5" fill="#000"></rect><text x="1019" y="135.4703417772181" dy="0.35em" text-anchor="end">2.29</text></g><g><rect x="1025" y="34.2954995061516" height="0.6922392469325587" width="5" fill="#000"></rect><text x="1019" y="34.64161912961788" dy="0.35em" text-anchor="end">2.3</text></g><g><rect x="1025" y="112.71429970081135" height="1.391366446570828" width="5" fill="#000"></rect><text x="1019" y="113.40998292409677" dy="0.35em" text-anchor="end">2.31</text></g><g><rect x="1025" y="90.63499897774909" height="1.3973934051884953" width="5" fill="#000"></rect><text x="1019" y="91.33369568034334" dy="0.35em" text-anchor="end">2.32</text></g><g><rect x="1025" y="56.40407402821347" height="1.4034203638061626" width="5" fill="#000"></rect><text x="1019" y="57.10578421011655" dy="0.35em" text-anchor="end">2.33</text></g><g><rect x="1025" y="317.89534746438653" height="1.411169310600144" width="5" fill="#000"></rect><text x="1019" y="318.6009321196866" dy="0.35em" text-anchor="end">2.34</text></g><g><rect x="1025" y="44.98773875308416" height="1.4163352751293132" width="5" fill="#000"></rect><text x="1019" y="45.695906390648815" dy="0.35em" text-anchor="end">2.35</text></g><g><rect x="1025" y="22.87313727240462" height="1.4223622337469806" width="5" fill="#000"></rect><text x="1019" y="23.58431838927811" dy="0.35em" text-anchor="end">2.36</text></g><g><rect x="1025" y="78.49112369806994" height="2.1438752796791505" width="5" fill="#000"></rect><text x="1019" y="79.56306133790952" dy="0.35em" text-anchor="end">2.37</text></g><g><rect x="1025" y="11.437860127334261" height="1.4352771450703585" width="5" fill="#000"></rect><text x="1019" y="12.15549869986944" dy="0.35em" text-anchor="end">2.38</text></g><g><rect x="1025" y="-6.821210263296962e-13" height="1.4378601273349432" width="5" fill="#000"></rect><text x="1019" y="0.7189300636667895" dy="0.35em" text-anchor="end">2.39</text></g><g><rect x="512.5" y="215.79334126177395" height="27.717982682212664" width="5" fill="#000"></rect><text x="506.5" y="229.65233260288028" dy="0.35em" text-anchor="end">26.2</text></g><g><rect x="512.5" y="109.99999999999972" height="95.79334126177423" width="5" fill="#000"></rect><text x="506.5" y="157.89667063088683" dy="0.35em" text-anchor="end">26.3</text></g><g><rect x="512.5" y="292.06530021049736" height="26.108784731320952" width="5" fill="#000"></rect><text x="506.5" y="305.11969257615783" dy="0.35em" text-anchor="end">26.4</text></g><g><rect x="512.5" y="378.37428190501436" height="11.700048664883298" width="5" fill="#000"></rect><text x="506.5" y="384.224306237456" dy="0.35em" text-anchor="end">26.5</text></g><g><rect x="512.5" y="505.38755676369914" height="11.700048664883298" width="5" fill="#000"></rect><text x="506.5" y="511.2375810961408" dy="0.35em" text-anchor="end">26.6</text></g><g><rect x="512.5" y="549.7566871020786" height="7.804050415667064" width="5" fill="#000"></rect><text x="506.5" y="553.6587123099121" dy="0.35em" text-anchor="end">26.7</text></g><g><rect x="512.5" y="685.1986477497535" height="8.683986373832681" width="5" fill="#000"></rect><text x="506.5" y="689.5406409366699" dy="0.35em" text-anchor="end">26.8</text></g><g><rect x="512.5" y="715.1810132086288" height="5.85045482948567" width="5" fill="#000"></rect><text x="506.5" y="718.1062406233716" dy="0.35em" text-anchor="end">26.9</text></g><g><rect x="512.5" y="642.4774600962359" height="5.201265286964485" width="5" fill="#000"></rect><text x="506.5" y="645.0780927397182" dy="0.35em" text-anchor="end">27</text></g><g><rect x="512.5" y="670.6500159816633" height="4.5486317680902175" width="5" fill="#000"></rect><text x="506.5" y="672.9243318657084" dy="0.35em" text-anchor="end">27.1</text></g><g><rect x="512.5" y="452.55960584324197" height="5.675673029576046" width="5" fill="#000"></rect><text x="506.5" y="455.39744235803" dy="0.35em" text-anchor="end">27.2</text></g><g><rect x="512.5" y="352.5186611109993" height="3.902886201921774" width="5" fill="#000"></rect><text x="506.5" y="354.4701042119602" dy="0.35em" text-anchor="end">27.3</text></g><g><rect x="512.5" y="438.1848948809731" height="4.374710962268864" width="5" fill="#000"></rect><text x="506.5" y="440.37225036210754" dy="0.35em" text-anchor="end">27.4</text></g><g><rect x="512.5" y="278.54039041330617" height="3.524909797191185" width="5" fill="#000"></rect><text x="506.5" y="280.30284531190176" dy="0.35em" text-anchor="end">27.5</text></g><g><rect x="512.5" y="253.5113239439866" height="1.950151609828481" width="5" fill="#000"></rect><text x="506.5" y="254.48639974890085" dy="0.35em" text-anchor="end">27.6</text></g><g><rect x="512.5" y="265.4614755538151" height="3.0789148594910785" width="5" fill="#000"></rect><text x="506.5" y="267.00093298356063" dy="0.35em" text-anchor="end">27.7</text></g><g><rect x="512.5" y="412.6779766926888" height="3.5559055843673377" width="5" fill="#000"></rect><text x="506.5" y="414.45592948487246" dy="0.35em" text-anchor="end">27.8</text></g><g><rect x="512.5" y="339.47590800321376" height="3.042753107785529" width="5" fill="#000"></rect><text x="506.5" y="340.9972845571065" dy="0.35em" text-anchor="end">27.9</text></g><g><rect x="512.5" y="426.2338822770561" height="1.951012603916979" width="5" fill="#000"></rect><text x="506.5" y="427.2093885790146" dy="0.35em" text-anchor="end">28</text></g><g><rect x="512.5" y="567.5607375177456" height="4.690695792647261" width="5" fill="#000"></rect><text x="506.5" y="569.9060854140691" dy="0.35em" text-anchor="end">28.1</text></g><g><rect x="512.5" y="527.0876054285825" height="0.6517725247859971" width="5" fill="#000"></rect><text x="506.5" y="527.4134916909754" dy="0.35em" text-anchor="end">28.2</text></g><g><rect x="512.5" y="492.41023920661877" height="2.9773175570803687" width="5" fill="#000"></rect><text x="506.5" y="493.89889798515895" dy="0.35em" text-anchor="end">28.3</text></g><g><rect x="512.5" y="537.7393779533685" height="2.017309148710069" width="5" fill="#000"></rect><text x="506.5" y="538.7480325277236" dy="0.35em" text-anchor="end">28.4</text></g><g><rect x="512.5" y="400.07433056989765" height="2.603646122791133" width="5" fill="#000"></rect><text x="506.5" y="401.3761536312932" dy="0.35em" text-anchor="end">28.5</text></g><g><rect x="512.5" y="468.235278872818" height="1.301823061395453" width="5" fill="#000"></rect><text x="506.5" y="468.88619040351574" dy="0.35em" text-anchor="end">28.6</text></g><g><rect x="512.5" y="594.4400802826597" height="1.300101073219139" width="5" fill="#000"></rect><text x="506.5" y="595.0901308192692" dy="0.35em" text-anchor="end">28.7</text></g><g><rect x="512.5" y="630.4257111839968" height="2.051748912239077" width="5" fill="#000"></rect><text x="506.5" y="631.4515856401163" dy="0.35em" text-anchor="end">28.8</text></g><g><rect x="512.5" y="605.7401813558788" height="1.9518735980050224" width="5" fill="#000"></rect><text x="506.5" y="606.7161181548813" dy="0.35em" text-anchor="end">28.9</text></g><g><rect x="512.5" y="617.6920549538838" height="2.733656230112956" width="5" fill="#000"></rect><text x="506.5" y="619.0588830689403" dy="0.35em" text-anchor="end">29</text></g><g><rect x="512.5" y="657.6787253832003" height="2.9712905984629288" width="5" fill="#000"></rect><text x="506.5" y="659.1643706824318" dy="0.35em" text-anchor="end">29.1</text></g><g><rect x="512.5" y="366.42154731292106" height="1.952734592093293" width="5" fill="#000"></rect><text x="506.5" y="367.3979146089677" dy="0.35em" text-anchor="end">29.2</text></g><g><rect x="512.5" y="582.2514333103928" height="2.188646972266838" width="5" fill="#000"></rect><text x="506.5" y="583.3457567965263" dy="0.35em" text-anchor="end">29.3</text></g><g><rect x="512.5" y="328.1740849418183" height="1.301823061395453" width="5" fill="#000"></rect><text x="506.5" y="328.82499647251603" dy="0.35em" text-anchor="end">29.4</text></g><g><rect x="512.5" y="479.53710193421347" height="2.8731372724053017" width="5" fill="#000"></rect><text x="506.5" y="480.9736705704161" dy="0.35em" text-anchor="end">29.5</text></g><g><rect x="512.5" y="703.8826341235862" height="1.2983790850425976" width="5" fill="#000"></rect><text x="506.5" y="704.5318236661075" dy="0.35em" text-anchor="end">29.6</text></g><g><rect x="512.5" y="794.4608391668805" height="4.539160833119809" width="5" fill="#000"></rect><text x="506.5" y="796.7304195834404" dy="0.35em" text-anchor="end">29.7</text></g><g><rect x="512.5" y="731.0314680381144" height="3.619619146895957" width="5" fill="#000"></rect><text x="506.5" y="732.8412776115624" dy="0.35em" text-anchor="end">29.8</text></g><g><rect x="512.5" y="744.6510871850104" height="15.988660218329642" width="5" fill="#000"></rect><text x="506.5" y="752.6454172941752" dy="0.35em" text-anchor="end">29.9</text></g><g><rect x="512.5" y="770.63974740334" height="1.29665709686617" width="5" fill="#000"></rect><text x="506.5" y="771.2880759517732" dy="0.35em" text-anchor="end">30</text></g><g><rect x="512.5" y="781.9364045002062" height="2.524434666674324" width="5" fill="#000"></rect><text x="506.5" y="783.1986218335434" dy="0.35em" text-anchor="end">30.2</text></g></g></g>
    </svg>
